HIERARCHY
ROOT SpineBase
{
  OFFSET 0.000000 0.000000 0.000000
  CHANNELS 6 Xposition Yposition Zposition Zrotation Xrotation Yrotation
  JOINT SpineMid
  {
    OFFSET 0.000000 29.483821 0.000000
    CHANNELS 3 Zrotation Xrotation Yrotation
    JOINT SpineShoulder
    {
      OFFSET -0.074502 21.898920 -0.772228
      CHANNELS 3 Zrotation Xrotation Yrotation
      JOINT Neck
      {
        OFFSET -0.028996 7.247069 -0.580285
        CHANNELS 3 Zrotation Xrotation Yrotation
        JOINT Head
        {
          OFFSET -3.080388 13.516243 0.297402
          CHANNELS 3 Zrotation Xrotation Yrotation
          End Site
          {
            OFFSET 0 0 0
          }
        }
      }
      JOINT ShoulderLeft
      {
        OFFSET -15.782465 -4.837089 5.784154
        CHANNELS 3 Zrotation Xrotation Yrotation
        JOINT ElbowLeft
        {
          OFFSET -0.901597 -26.342382 2.631422
          CHANNELS 3 Zrotation Xrotation Yrotation
          JOINT WristLeft
          {
            OFFSET 1.710111 -22.667941 -4.571521
            CHANNELS 3 Zrotation Xrotation Yrotation
            JOINT HandLeft
            {
              OFFSET -0.150640 -4.660337 -1.072675
              CHANNELS 3 Zrotation Xrotation Yrotation
              JOINT HandTipLeft
              {
                OFFSET 1.295787 -6.706311 -2.141499
                CHANNELS 3 Zrotation Xrotation Yrotation
                End Site
                {
                  OFFSET 0 0 0
                }
              }
              JOINT ThumbLeft
              {
                OFFSET 2.808903 -0.008375 -4.558899
                CHANNELS 3 Zrotation Xrotation Yrotation
                End Site
                {
                  OFFSET 0 0 0
                }
              }
            }
          }
        }
      }
      JOINT ShoulderRight
      {
        OFFSET 12.216493 -3.839895 -10.011691
        CHANNELS 3 Zrotation Xrotation Yrotation
        JOINT ElbowRight
        {
          OFFSET 5.211552 -23.789734 -1.387733
          CHANNELS 3 Zrotation Xrotation Yrotation
          JOINT WristRight
          {
            OFFSET -0.269695 -19.104683 -5.569181
            CHANNELS 3 Zrotation Xrotation Yrotation
            JOINT HandRight
            {
              OFFSET -1.049280 -6.472336 -0.623401
              CHANNELS 3 Zrotation Xrotation Yrotation
              JOINT HandTipRight
              {
                OFFSET 0.346841 -6.479154 0.065131
                CHANNELS 3 Zrotation Xrotation Yrotation
                End Site
                {
                  OFFSET 0 0 0
                }
              }
              JOINT ThumbRight
              {
                OFFSET -3.412268 1.345944 0.496799
                CHANNELS 3 Zrotation Xrotation Yrotation
                End Site
                {
                  OFFSET 0 0 0
                }
              }
            }
          }
        }
      }
    }
  }
  JOINT HipLeft
  {
    OFFSET -5.480603 0.101344 -0.519865
    CHANNELS 3 Zrotation Xrotation Yrotation
    JOINT KneeLeft
    {
      OFFSET 5.271648 -26.086447 5.697535
      CHANNELS 3 Zrotation Xrotation Yrotation
      JOINT AnkleLeft
      {
        OFFSET 6.087116 -33.056391 8.218604
        CHANNELS 3 Zrotation Xrotation Yrotation
        JOINT FootLeft
        {
          OFFSET -3.634272 -2.836257 -10.046219
          CHANNELS 3 Zrotation Xrotation Yrotation
          End Site
          {
            OFFSET 0 0 0
          }
        }
      }
    }
  }
  JOINT HipRight
  {
    OFFSET 5.310803 1.569597 -6.166748
    CHANNELS 3 Zrotation Xrotation Yrotation
    JOINT KneeRight
    {
      OFFSET 9.614749 -25.588833 2.295155
      CHANNELS 3 Zrotation Xrotation Yrotation
      JOINT AnkleRight
      {
        OFFSET 5.003427 -32.627177 8.587908
        CHANNELS 3 Zrotation Xrotation Yrotation
        JOINT FootRight
        {
          OFFSET -3.767765 -2.829689 -10.035307
          CHANNELS 3 Zrotation Xrotation Yrotation
          End Site
          {
            OFFSET 0 0 0
          }
        }
      }
    }
  }
}
MOTION
Frames: 16
Frame Time: 0.033333
8.202707 63.871504 327.541010 3.063831 0.467861 20.935931 -0.018531 0.276438 -20.849170 -0.134799 0.122360 0.118460 -9.148307 16.858636 4.888778 0.000000 0.000000 0.000000 -1.158736 1.279541 -0.163233 0.280012 -1.150595 -0.383238 7.647983 -8.818319 -0.841722 -1.968782 0.331570 -1.820604 0.000000 0.000000 0.000000 0.000000 0.000000 0.000000 2.914256 69.698454 12.503264 -175.317599 20.909157 -95.318891 10.891531 15.779896 -2.537346 -27.934123 -4.963751 -20.954722 0.000000 0.000000 0.000000 0.000000 0.000000 0.000000 -4.322868 0.573942 -21.284225 1.175269 0.548093 0.361466 0.327051 0.069667 -1.249737 0.000000 0.000000 0.000000 -6.607434 1.970712 -21.214064 5.719652 2.096899 1.142468 -1.632235 -1.897149 -2.084642 0.000000 0.000000 0.000000
8.139128 63.855918 327.600251 2.894797 0.374569 20.840964 -0.057697 0.344026 -20.760247 -0.220409 0.109142 0.101405 -9.274983 16.434245 4.860289 0.000000 0.000000 0.000000 -0.884904 1.081011 -0.127345 0.443152 -1.177459 -0.430399 6.206175 -8.813187 -0.607372 1.123005 1.842391 -2.815009 0.000000 0.000000 0.000000 0.000000 0.000000 0.000000 5.139359 69.769575 11.133090 -175.969484 20.587932 -95.225510 9.399394 15.985118 -0.225862 -23.992285 -0.180545 -17.736528 0.000000 0.000000 0.000000 0.000000 0.000000 0.000000 -4.007758 0.715131 -21.138451 1.103003 0.388778 0.315357 0.313185 0.065396 -1.195025 0.000000 0.000000 0.000000 -6.081212 2.333448 -20.926591 5.591603 1.496211 0.980878 -1.703040 -1.761138 -2.019793 0.000000 0.000000 0.000000
8.078179 63.840248 327.646111 2.734566 0.304869 20.787594 -0.129823 0.406682 -20.713835 -0.286463 0.094519 0.085115 -9.008833 15.899963 4.731391 0.000000 0.000000 0.000000 -0.632843 0.939125 -0.097026 0.541391 -1.345004 -0.461118 5.353733 -9.517210 -0.384770 2.576509 4.192791 -3.330410 0.000000 0.000000 0.000000 0.000000 0.000000 0.000000 6.437304 70.225011 10.515031 -176.433282 20.907464 -94.866438 8.465408 15.718401 0.891680 -21.595506 3.845279 -14.184926 0.000000 0.000000 0.000000 0.000000 0.000000 0.000000 -3.720441 0.830317 -21.040405 1.037147 0.243884 0.273234 0.296623 0.076260 -1.149641 0.000000 0.000000 0.000000 -5.892346 2.120349 -20.944292 5.463728 1.838275 1.044830 -1.685739 -1.899960 -1.988023 0.000000 0.000000 0.000000
8.039102 63.836248 327.652745 2.593322 0.294037 20.748873 -0.218463 0.451650 -20.682615 -0.333286 0.088739 0.070656 -8.760165 15.279647 4.579037 0.000000 0.000000 0.000000 -0.417505 0.803877 -0.072577 0.702489 -1.501950 -0.494159 5.211382 -9.067234 -0.384432 3.509021 6.014573 -3.493413 0.000000 0.000000 0.000000 0.000000 0.000000 0.000000 6.752383 70.624336 10.592653 -176.685034 21.592409 -93.992059 8.379549 14.676531 0.072799 -20.340685 7.813534 -9.581838 0.000000 0.000000 0.000000 0.000000 0.000000 0.000000 -3.520691 0.843376 -20.979933 0.997006 0.168640 0.250014 0.275464 0.094731 -1.097460 0.000000 0.000000 0.000000 -5.347206 2.245866 -20.769773 4.967159 1.336846 0.847978 -1.520014 -1.714068 -1.856843 0.000000 0.000000 0.000000
8.042548 63.859273 327.606880 2.503222 0.340763 20.816189 -0.350982 0.471878 -20.757533 -0.345633 0.078559 0.059908 -8.581589 14.587641 4.405348 0.000000 0.000000 0.000000 -0.255927 0.706956 -0.055330 0.695826 -1.617951 -0.489322 4.407456 -9.083086 -0.248884 3.213163 7.052624 -3.175432 0.000000 0.000000 0.000000 0.000000 0.000000 0.000000 5.248768 71.040758 11.988745 -176.383922 22.360358 -94.004764 8.856123 13.529900 -1.610224 -20.963030 9.935148 -5.494887 0.000000 0.000000 0.000000 0.000000 0.000000 0.000000 -3.504840 0.801260 -21.061700 1.056793 0.160437 0.261355 0.249890 0.105375 -1.019882 0.000000 0.000000 0.000000 -5.178601 2.296084 -20.782759 4.865286 0.998038 0.756168 -1.485712 -1.524292 -1.733440 0.000000 0.000000 0.000000
8.025167 63.870451 327.584175 2.371181 0.381125 20.803329 -0.436363 0.501933 -20.752433 -0.348212 0.099227 0.049596 -8.395213 13.837758 4.218794 0.000000 0.000000 0.000000 -0.131979 0.531347 -0.040267 0.663071 -1.810889 -0.479647 3.207045 -10.458763 0.067257 3.310182 7.825559 -3.354727 0.000000 0.000000 0.000000 0.000000 0.000000 0.000000 3.695555 72.574740 13.721338 -176.250318 24.055513 -94.137552 10.175782 12.048027 -4.834552 -22.356144 12.322349 0.005304 0.000000 0.000000 0.000000 0.000000 0.000000 0.000000 -3.423391 0.718913 -21.060095 1.083520 0.167698 0.268534 0.224016 0.120813 -0.947336 0.000000 0.000000 0.000000 -5.370922 1.901360 -20.943845 5.127742 1.556149 0.943907 -1.606104 -1.662816 -1.713824 0.000000 0.000000 0.000000
8.022827 63.888589 327.538244 2.260711 0.451213 20.765813 -0.498541 0.506965 -20.721416 -0.323595 0.132886 0.043851 -8.401159 12.950714 4.004314 0.000000 0.000000 0.000000 -0.114225 0.326846 -0.034943 0.645897 -1.971204 -0.463575 0.830615 -11.301252 0.484320 5.009649 10.413078 -3.696521 0.000000 0.000000 0.000000 0.000000 0.000000 0.000000 -0.095063 73.739300 17.121271 -175.987371 25.585338 -96.229002 11.064287 11.183147 -6.566213 -24.103869 14.262505 5.062430 0.000000 0.000000 0.000000 0.000000 0.000000 0.000000 -3.439402 0.552920 -21.060395 1.149918 0.257338 0.300121 0.207514 0.146555 -0.921030 0.000000 0.000000 0.000000 -5.410288 1.661115 -20.985313 5.210459 1.698547 1.003722 -1.640199 -1.618416 -1.691821 0.000000 0.000000 0.000000
8.012899 63.881225 327.484385 2.152899 0.525284 20.691346 -0.494894 0.476775 -20.650773 -0.285348 0.153314 0.042815 -8.656608 11.990419 3.775064 0.000000 0.000000 0.000000 -0.212373 0.125024 -0.040169 0.669405 -2.064413 -0.445394 -0.925105 -10.991518 0.737018 5.200267 9.952004 -3.489658 0.000000 0.000000 0.000000 0.000000 0.000000 0.000000 -6.073308 75.505182 22.552280 -175.466780 27.539400 -99.519703 11.645929 11.059661 -6.996120 -24.644684 15.395625 6.969615 0.000000 0.000000 0.000000 0.000000 0.000000 0.000000 -3.435273 0.332704 -21.023648 1.176093 0.384313 0.330155 0.204705 0.156002 -0.922894 0.000000 0.000000 0.000000 -5.566945 1.144018 -21.109246 5.231615 2.286073 1.161127 -1.603932 -1.715573 -1.704095 0.000000 0.000000 0.000000
7.988083 63.871674 327.435633 2.026223 0.585253 20.597196 -0.453726 0.434198 -20.559210 -0.245633 0.180770 0.042824 -9.123524 10.931819 3.530053 0.000000 0.000000 0.000000 -0.380104 -0.116792 -0.051333 0.764929 -2.005901 -0.422441 -1.509061 -10.956792 0.828746 4.421762 8.998910 -3.159623 0.000000 0.000000 0.000000 0.000000 0.000000 0.000000 -13.634554 77.569976 29.757202 -174.915701 29.498674 -103.366567 12.292498 11.019480 -7.362484 -25.597858 17.423090 10.083472 0.000000 0.000000 0.000000 0.000000 0.000000 0.000000 -3.360570 0.117325 -20.953844 1.157731 0.494575 0.347435 0.205803 0.178164 -0.954502 0.000000 0.000000 0.000000 -5.356687 1.002092 -21.011432 5.037469 2.158088 1.112891 -1.522034 -1.581570 -1.697434 0.000000 0.000000 0.000000
7.937301 63.856989 327.408954 1.873942 0.616652 20.534421 -0.389377 0.402348 -20.498617 -0.236690 0.201026 0.039950 -9.602221 9.867746 3.279683 0.000000 0.000000 0.000000 -0.499121 -0.318208 -0.059780 0.760665 -1.787896 -0.371892 -1.366057 -12.796818 0.852582 4.165603 11.974951 -2.985739 0.000000 0.000000 0.000000 0.000000 0.000000 0.000000 -25.471679 78.824641 40.762573 -173.319090 31.091875 -107.565928 12.890521 10.156197 -8.372033 -27.106022 21.489225 15.196436 0.000000 0.000000 0.000000 0.000000 0.000000 0.000000 -3.215152 -0.044791 -20.899789 1.117666 0.560379 0.351577 0.209825 0.201897 -0.998375 0.000000 0.000000 0.000000 -4.954593 1.010447 -20.863982 4.735074 1.802233 0.989837 -1.426445 -1.401168 -1.693075 0.000000 0.000000 0.000000
7.871220 63.838269 327.404238 1.716174 0.618115 20.430919 -0.294899 0.371508 -20.395937 -0.232410 0.210119 0.037759 -10.243900 8.920445 3.063447 0.000000 0.000000 0.000000 -1.079202 -1.071542 -0.100724 1.218908 -0.916119 -0.305447 -0.174142 -13.006295 0.674669 3.421224 13.269777 -2.604468 0.000000 0.000000 0.000000 0.000000 0.000000 0.000000 -38.792728 78.800501 52.730145 -170.867910 32.153162 -111.772788 13.713946 9.318706 -9.775934 -30.482589 23.115208 20.627975 0.000000 0.000000 0.000000 0.000000 0.000000 0.000000 -3.015351 -0.139883 -20.787384 1.057134 0.572280 0.341000 0.218019 0.226028 -1.057454 0.000000 0.000000 0.000000 -4.085197 1.367897 -20.467171 4.032788 0.800961 0.636837 -1.229780 -1.056692 -1.650843 0.000000 0.000000 0.000000
7.792726 63.819182 327.433703 1.549227 0.582107 20.315996 -0.227903 0.366695 -20.282954 -0.239564 0.209202 0.032788 -10.793669 8.080982 2.867051 0.000000 0.000000 0.000000 -0.969922 -1.054512 -0.090747 1.193366 -0.693575 -0.285905 1.141013 -11.551405 0.398913 2.481574 11.135413 -2.302065 0.000000 0.000000 0.000000 0.000000 0.000000 0.000000 -47.016637 77.371127 59.239283 -167.807762 32.104529 -115.274677 14.669972 8.139866 -11.846127 -32.067458 30.361085 26.079654 0.000000 0.000000 0.000000 0.000000 0.000000 0.000000 -2.749442 -0.154693 -20.643453 0.972502 0.523228 0.313479 0.234137 0.257717 -1.153874 0.000000 0.000000 0.000000 -3.648329 1.480295 -20.247562 3.794389 0.448396 0.515282 -1.173358 -0.916475 -1.720290 0.000000 0.000000 0.000000
7.731588 63.817698 327.441754 1.414621 0.581419 20.366613 -0.183187 0.355450 -20.335680 -0.247397 0.212955 0.028268 -11.380793 7.183021 2.645668 0.000000 0.000000 0.000000 -0.872961 -1.062559 -0.082189 1.035535 -0.247120 -0.225200 3.314796 -14.015204 0.230183 0.573338 13.932343 -1.743864 0.000000 0.000000 0.000000 0.000000 0.000000 0.000000 -51.151878 75.311711 61.446492 -164.667209 31.881008 -117.111814 16.025082 6.488019 -15.337945 -36.294007 33.045628 32.352973 0.000000 0.000000 0.000000 0.000000 0.000000 0.000000 -2.548698 -0.170594 -20.670734 0.912891 0.470459 0.290505 0.234884 0.281703 -1.186263 0.000000 0.000000 0.000000 -3.163497 1.695463 -20.139396 3.485036 -0.130028 0.322772 -1.102774 -0.699787 -1.704725 0.000000 0.000000 0.000000
7.693537 63.838587 327.427070 1.313998 0.602372 20.486929 -0.149487 0.341175 -20.457667 -0.251624 0.205231 0.025122 -12.013846 6.415390 2.455418 0.000000 0.000000 0.000000 -0.804034 -1.073762 -0.076157 1.031057 -0.108524 -0.215048 5.581660 -12.049685 -0.220140 -0.711329 12.575533 -1.261382 0.000000 0.000000 0.000000 0.000000 0.000000 0.000000 -51.280480 72.712404 59.477806 -161.719100 31.040517 -117.559778 17.505783 4.802556 -19.530119 -39.401102 33.973202 36.271288 0.000000 0.000000 0.000000 0.000000 0.000000 0.000000 -2.393163 -0.192577 -20.769756 0.858331 0.419937 0.268996 0.228235 0.296752 -1.181398 0.000000 0.000000 0.000000 -2.669719 2.028365 -20.052278 3.181325 -0.912145 0.075742 -1.050513 -0.418599 -1.642557 0.000000 0.000000 0.000000
7.677079 63.877996 327.414689 1.253518 0.618826 20.736688 -0.168097 0.329832 -20.709677 -0.260231 0.166791 0.021243 -12.427687 6.028436 2.365182 0.000000 0.000000 0.000000 -0.720251 -1.033635 -0.068258 1.005676 -0.188052 -0.215288 6.041192 -10.298020 -0.447022 -1.638087 11.650959 -0.648377 0.000000 0.000000 0.000000 0.000000 0.000000 0.000000 -50.779355 69.878461 56.781684 -160.166318 30.561872 -120.020903 16.793779 7.703963 -16.125080 -35.490931 31.415121 30.825320 0.000000 0.000000 0.000000 0.000000 0.000000 0.000000 -2.304154 -0.158828 -21.002096 0.843504 0.349542 0.252089 0.217799 0.292012 -1.138647 0.000000 0.000000 0.000000 -2.611787 2.043363 -20.289907 3.213091 -1.015988 0.060184 -1.077655 -0.355275 -1.594613 0.000000 0.000000 0.000000
7.652963 63.907305 327.404721 1.175010 0.619746 21.036979 -0.187797 0.325188 -21.012747 -0.270889 0.131749 0.016204 -12.559351 5.912060 2.347377 0.000000 0.000000 0.000000 -0.612888 -0.986882 -0.058264 1.084351 -0.437625 -0.247579 5.372451 -7.010861 -0.626615 -1.120497 7.487108 -0.741783 0.000000 0.000000 0.000000 0.000000 0.000000 0.000000 -48.801571 67.841727 53.528434 -158.438171 29.098355 -118.765994 17.440493 6.987648 -18.300408 -34.405337 31.084319 29.137236 0.000000 0.000000 0.000000 0.000000 0.000000 0.000000 -2.134269 -0.117348 -21.268271 0.773820 0.259124 0.219436 0.205886 0.293245 -1.098084 0.000000 0.000000 0.000000 -2.486717 2.023535 -20.583623 3.194469 -1.064240 0.053378 -1.109786 -0.319989 -1.554956 0.000000 0.000000 0.000000
